<svg xmlns="http://www.w3.org/2000/svg" xmlns:xlink="http://www.w3.org/1999/xlink" width="222" height="72" viewBox="0 0 222 72">
    <defs>
        <path id="a" d="M4.99.013H.426V17.88h4.562V.013z"/>
        <path id="c" d="M19.319.334V19.07H.034V.334h19.285z"/>
        <path id="e" d="M0 72.246h221.73V.436H0z"/>
    </defs>
    <g fill="none" fill-rule="evenodd">
        <path fill="#FDC80C" d="M35.933 41.508c0 .587-.67 1.068-1.512 1.105a2.618 2.618 0 0 1-1.81 2.982 2.601 2.601 0 0 0-.087-2.978h-4.597v2.547c0 1.513.78 2.851 1.959 3.634L26.88 72.246 23.809 48.88l-.005-.013a4.368 4.368 0 0 0 2.064-3.703v-2.547h-4.834a2.606 2.606 0 0 0-.088 2.978 2.617 2.617 0 0 1-1.81-2.98c-.847-.033-1.526-.517-1.526-1.107 0-.589.679-1.074 1.525-1.106a2.617 2.617 0 0 1 1.81-2.98 2.605 2.605 0 0 0 .089 2.978h4.834v-5.546c-.292-.393-.681-.634-1.11-.634-.45 0-.86.265-1.155.693.008-1.48 1.02-2.674 2.267-2.674h.021c.093-1.157.508-2.029 1.007-2.029.5 0 .914.874 1.008 2.032 1.22.036 2.202 1.214 2.21 2.67-.296-.427-.704-.692-1.155-.692-.393 0-.752.202-1.034.537V40.4h4.597a2.607 2.607 0 0 0 .087-2.979 2.617 2.617 0 0 1 1.81 2.981c.841.038 1.512.52 1.512 1.106z"/>
        <path fill="#263067" d="M16.332 4.124c1.32 1.208 3.814 1.207 5.135 0 .603-.554 1.98-.554 2.585 0 .66.604 1.614.906 2.567.906.953 0 1.908-.302 2.567-.906.605-.553 1.982-.553 2.587 0 1.32 1.207 3.814 1.207 5.135 0 .59-.54 1.914-.552 2.539-.038V2.01c-1.294-.389-2.86-.15-3.813.724-.605.552-1.984.553-2.588 0-1.32-1.209-3.814-1.208-5.133 0-.605.553-1.983.553-2.588 0-1.319-1.21-3.814-1.21-5.133 0-.605.553-1.983.553-2.587 0-.929-.851-2.439-1.1-3.713-.753v2.03c.658-.437 1.88-.4 2.44.113M50.86 28.418c0-.405-.01-.806-.027-1.206L32.961 10.648l15.836 7.205.016-.034a26.85 26.85 0 0 0-1.206-2.579L34.203 9.142c.998.03 2.013-.267 2.705-.9.584-.538 1.897-.552 2.528-.046V6.125c-1.292-.385-2.851-.145-3.802.726-.604.554-1.983.554-2.588 0-1.32-1.208-3.815-1.208-5.133 0-.605.554-1.983.554-2.587 0-1.32-1.208-3.815-1.209-5.133 0-.605.554-1.984.554-2.588 0-.957-.876-2.53-1.113-3.826-.72v2.083c.62-.524 1.958-.516 2.552.029.699.639 1.727.936 2.736.898L6.483 14.866a27.069 27.069 0 0 0-1.288 2.658l15.129-6.883L3.085 26.658a29.422 29.422 0 0 0-.057 1.76c0 .286.006.57.014.854l19.042-17.694L5.002 38.84c.281.709.59 1.402.925 2.076l18.575-29.642-12.485 37.59c.507.443 1.029.866 1.567 1.263L25.926 13.42v15.34h1.885V13.44l12.13 36.947a24.043 24.043 0 0 0 1.578-1.223L28.856 11.312 47.683 41.46c.345-.657.665-1.333.958-2.023L31.174 11.563 50.83 29.777c.02-.45.031-.904.031-1.36"/>
        <path fill="#FDC80C" d="M9.766 10.552a2.136 2.136 0 1 1-4.273 0 2.136 2.136 0 0 1 4.273 0M4.274 21.482a2.136 2.136 0 1 1-4.273 0 2.136 2.136 0 0 1 4.273 0M4.399 34.094a2.137 2.137 0 1 1-4.274 0 2.137 2.137 0 0 1 4.274 0M9.477 46.806a2.136 2.136 0 1 1-4.272 0 2.136 2.136 0 0 1 4.272 0M20.923 55.083a2.137 2.137 0 1 1-4.273 0 2.137 2.137 0 0 1 4.273 0M43.406 10.552a1.923 1.923 0 1 0 3.847 0 1.923 1.923 0 0 0-3.847 0M49.313 21.482a2.137 2.137 0 1 0 4.273-.002 2.137 2.137 0 0 0-4.273.002M49.237 34.094a2.137 2.137 0 1 0 4.275 0 2.137 2.137 0 0 0-4.275 0M43.816 46.806a2.136 2.136 0 1 0 4.273 0 2.136 2.136 0 0 0-4.273 0M32.604 55.083a2.136 2.136 0 1 0 4.273 0 2.136 2.136 0 0 0-4.273 0"/>
        <path fill="#263067" d="M72.936 11.53h4.155c-.505 4.227-3.723 7.109-8.19 7.109-4.923 0-8.645-3.578-8.645-8.502 0-4.923 3.722-8.5 8.645-8.5 4.467 0 7.685 2.88 8.19 7.108h-4.155c-.456-2.042-1.897-3.314-4.059-3.314-2.665 0-4.515 1.993-4.515 4.706 0 2.714 1.85 4.707 4.515 4.707 2.162 0 3.603-1.273 4.059-3.314M91.5 18.303h-3.89v-.649c-.865.552-1.922.888-3.194.888-3.146 0-5.789-2.617-5.789-6.075 0-3.482 2.643-6.076 5.789-6.076 1.272 0 2.329.336 3.193.889v-.625H91.5v11.648zm-3.89-4.035v-3.603c-.72-.84-1.561-1.104-2.426-1.104-1.585 0-2.738 1.297-2.738 2.906 0 1.609 1.153 2.882 2.738 2.882.865 0 1.705-.24 2.425-1.081zM113.498 11.65v6.653h-3.915v-6.028c0-1.657-.792-2.45-2.09-2.45-.6 0-1.2.264-1.776.96.024.29.048.577.048.865v6.653h-3.89v-6.028c0-1.657-.817-2.45-2.09-2.45-.6 0-1.177.289-1.753 1.033v7.445h-3.89V6.655h3.89v.697c.792-.673 1.609-1.057 2.906-1.057 1.464 0 2.713.552 3.578 1.56 1.225-1.08 2.402-1.56 4.13-1.56 2.786 0 4.852 2.041 4.852 5.355"/>
        <g transform="translate(115.353 .423)">
            <mask id="b" fill="#fff">
                <use xlink:href="#a"/>
            </mask>
            <path fill="#263067" d="M.427 2.222c0-1.273 1.008-2.21 2.28-2.21 1.25 0 2.282.937 2.282 2.21 0 1.249-1.033 2.186-2.282 2.186-1.272 0-2.28-.937-2.28-2.186zm.36 15.658h3.89V6.233H.787V17.88z" mask="url(#b)"/>
        </g>
        <path fill="#263067" d="M134.823 11.65v6.653h-3.914v-6.028c0-1.657-.84-2.45-2.113-2.45-.721 0-1.49.409-2.162 1.177v7.3h-3.89V6.656h3.89v.793c.937-.745 1.97-1.153 3.218-1.153 2.954 0 4.971 2.041 4.971 5.355M149.376 11.65v6.653h-3.914v-6.028c0-1.657-.84-2.45-2.114-2.45-.72 0-1.489.409-2.161 1.177v7.3h-3.89V1.253h3.89v6.196c.937-.745 1.97-1.153 3.218-1.153 2.954 0 4.97 2.041 4.97 5.355M163.833 12.467c0 3.554-2.641 6.196-6.316 6.196-3.673 0-6.316-2.642-6.316-6.196 0-3.507 2.643-6.076 6.316-6.076 3.675 0 6.316 2.57 6.316 6.076m-3.674.024c0-1.513-1.057-2.738-2.618-2.738-1.584 0-2.641 1.225-2.641 2.738 0 1.561 1.057 2.81 2.641 2.81 1.561 0 2.618-1.249 2.618-2.81M168.565 14.316c.168 1.009 1.008 1.465 2.233 1.465 1.033 0 1.658-.313 1.658-.816 0-.385-.36-.697-1.13-.817l-2.353-.408c-2.017-.337-3.41-1.465-3.41-3.506 0-2.45 2.089-3.891 5.187-3.891 2.473 0 5.284.96 5.452 4.035h-3.458c-.073-.889-.89-1.297-1.97-1.297-1.008 0-1.464.384-1.464.84 0 .384.287.745 1.2.913l2.185.36c2.186.409 3.627 1.465 3.627 3.53 0 2.69-2.426 3.939-5.451 3.939-3.05 0-5.525-1.273-5.764-4.37l3.458.023zM187.63 18.25h-1.11v-.833c-.685.653-1.599 1.029-2.725 1.029-2.156 0-3.903-1.763-3.903-3.968 0-2.202 1.747-3.965 3.903-3.965 1.126 0 2.04.375 2.725 1.028V6.659h1.11v11.59zm-1.11-2.156v-3.231c-.636-.93-1.551-1.388-2.578-1.388-1.665 0-2.923 1.371-2.923 3.003 0 1.616 1.258 2.988 2.923 2.988 1.027 0 1.942-.457 2.578-1.372zM196.567 14.92l-.065-.033v.033h-6.383c.163 1.436 1.191 2.579 2.824 2.579 1.045 0 1.845-.441 2.188-1.16h1.208c-.442 1.29-1.764 2.123-3.428 2.123-2.302 0-3.917-1.747-3.917-3.984 0-2.22 1.615-3.966 3.917-3.966 2.155 0 3.656 1.665 3.673 3.935 0 .162 0 .325-.017.473m-6.448-.866h5.338c-.131-1.517-1.094-2.579-2.58-2.579-1.583 0-2.595 1.16-2.758 2.579M81.814 30.477h-6.232c-.33-1.87-1.504-3.154-4.034-3.154-2.126 0-3.557.88-3.557 2.494 0 1.356.991 1.943 2.861 2.346l3.483.807c4.547.99 7.517 2.824 7.517 7.113 0 4.987-4.107 8.103-10.34 8.103-5.61 0-10.669-2.64-11.256-8.8h6.196c.403 2.2 2.31 3.52 5.243 3.52 2.31 0 3.52-.842 3.52-2.2 0-.842-.514-1.723-2.64-2.127l-4.106-.916c-4.913-1.064-7.223-3.372-7.223-7.332 0-4.987 4.033-8.14 9.9-8.14 4.032 0 10.045 1.576 10.668 8.286M104.07 47.672h-5.939v-.989c-1.32.843-2.933 1.356-4.876 1.356-4.803 0-8.836-3.996-8.836-9.276 0-5.316 4.033-9.276 8.836-9.276 1.943 0 3.556.514 4.876 1.357v-.954h5.94v17.782zm-5.939-6.159v-5.5c-1.1-1.283-2.383-1.686-3.702-1.686-2.421 0-4.181 1.98-4.181 4.436s1.76 4.4 4.18 4.4c1.32 0 2.604-.367 3.703-1.65zM126.547 37.517v10.155h-5.976V38.47c0-2.529-1.283-3.74-3.227-3.74-1.1 0-2.273.624-3.3 1.798v11.145h-5.939V29.891h5.94V31.1c1.43-1.136 3.006-1.76 4.912-1.76 4.51 0 7.59 3.117 7.59 8.177M144.367 47.342c-2.31.734-3.63.88-5.39.88-4.29 0-7.15-3.152-7.15-7.956v-5.28h-3.483V29.89h3.483v-6.05h5.94v6.05h6.05v5.096h-6.05v5.098c0 1.795 1.027 2.676 2.787 2.676.843 0 1.832-.183 3.152-.44l.66 5.022zM146.933 24.658c0-1.943 1.54-3.373 3.483-3.373 1.906 0 3.484 1.43 3.484 3.373 0 1.907-1.578 3.337-3.484 3.337-1.943 0-3.483-1.43-3.483-3.337zm.55 23.014h5.94V29.891h-5.94v17.781zM176.302 47.672h-5.94v-.989c-1.32.843-2.933 1.356-4.876 1.356-4.804 0-8.836-3.996-8.836-9.276 0-5.316 4.032-9.277 8.836-9.277 1.943 0 3.556.515 4.876 1.358v-.953h5.94v17.781zm-5.94-6.159v-5.5c-1.1-1.283-2.383-1.686-3.703-1.686-2.42 0-4.18 1.98-4.18 4.436 0 2.457 1.76 4.4 4.18 4.4 1.32 0 2.604-.367 3.703-1.65zM199.291 47.38c0 5.573-3.96 8.8-9.532 8.8-5.39 0-9.314-3.081-9.606-7.7h5.865c.295 1.649 1.54 2.676 3.74 2.676 2.017 0 3.593-1.247 3.593-3.667v-1.686c-1.32.77-2.896 1.246-4.839 1.246-4.803 0-8.836-3.85-8.836-8.652 0-5.427 4.033-9.13 8.836-9.13 1.943 0 3.52.513 4.84 1.32v-.696h5.94V47.38zm-5.94-6.71v-4.913c-1.1-1.247-2.382-1.65-3.665-1.65-2.421 0-4.18 1.724-4.18 4.29 0 1.943 1.759 3.923 4.18 3.923 1.283 0 2.565-.404 3.665-1.65z"/>
        <g transform="translate(202.412 29.152)">
            <mask id="d" fill="#fff">
                <use xlink:href="#c"/>
            </mask>
            <path fill="#263067" d="M19.319 9.61c0 5.428-4.033 9.46-9.642 9.46-5.61 0-9.643-4.032-9.643-9.459C.034 4.258 4.067.334 9.677.334c5.609 0 9.642 3.924 9.642 9.277m-5.609.037c0-2.31-1.614-4.18-3.997-4.18-2.42 0-4.032 1.87-4.032 4.18 0 2.383 1.612 4.289 4.032 4.289 2.383 0 3.997-1.906 3.997-4.289" mask="url(#d)"/>
        </g>
        <path fill="#263067" d="M65.228 60.435c.405-.296.683-.728.834-1.298l1.07.227c-.185.796-.583 1.42-1.194 1.874-.61.452-1.328.679-2.152.679-1.002 0-1.851-.347-2.547-1.04-.697-.693-1.045-1.544-1.045-2.553 0-1.002.348-1.852 1.045-2.548.696-.697 1.545-1.046 2.547-1.046.817 0 1.53.224 2.142.67a3.108 3.108 0 0 1 1.204 1.802l-1.07.308c-.151-.57-.43-1.002-.834-1.296-.405-.296-.885-.444-1.442-.444-.7 0-1.288.246-1.765.737-.477.49-.716 1.096-.716 1.817 0 .72.239 1.326.716 1.817.477.49 1.065.736 1.765.736.557 0 1.037-.147 1.442-.442M71.044 56.224l-1.246 2.934h2.492l-1.246-2.934zm2.357 5.549l-.68-1.606h-3.355l-.68 1.606h-1.194l3.037-6.898h1.03l3.037 6.898H73.4zM83.017 61.773h-1.071v-4.407l-2.368 4.407h-.68l-2.367-4.407v4.407h-1.07v-6.898h.967l2.81 5.22 2.822-5.22h.957z"/>
        <mask id="f" fill="#fff">
            <use xlink:href="#e"/>
        </mask>
        <path fill="#263067" d="M84.643 61.773h1.101v-6.898h-1.101zM93.579 61.773h-.937l-4.17-4.952v4.952H87.37v-6.898h.938l4.158 5.034v-5.034h1.113zM101.135 61.773h-1.102v-2.965h-3.727v2.965h-1.1v-6.898h1.1v2.924h3.727v-2.924h1.102zM107.806 60.146c.48-.487.72-1.091.72-1.812 0-.728-.24-1.336-.72-1.827a2.384 2.384 0 0 0-1.771-.737c-.7 0-1.289.246-1.766.737-.477.49-.716 1.1-.716 1.827 0 .72.239 1.325.716 1.812.477.487 1.065.731 1.766.731.7 0 1.29-.244 1.77-.731m.788-4.365c.697.7 1.045 1.551 1.045 2.553s-.348 1.85-1.045 2.543c-.696.693-1.55 1.04-2.558 1.04-1.01 0-1.86-.347-2.554-1.04-.693-.693-1.04-1.54-1.04-2.543 0-1.008.347-1.862 1.04-2.558.693-.697 1.544-1.045 2.554-1.045 1.009 0 1.862.35 2.558 1.05M116.524 58.334c.426 0 .762-.111 1.01-.335.247-.222.37-.523.37-.9 0-.364-.123-.66-.37-.886-.248-.226-.584-.34-1.01-.34h-2.007v2.461h2.007zm0-3.46c.755 0 1.358.205 1.807.613.45.409.674.946.674 1.612 0 .672-.224 1.214-.674 1.626-.45.412-1.052.618-1.807.618h-2.007v2.43h-1.102v-6.898h3.11zM125.234 60.146c.48-.487.72-1.091.72-1.812 0-.728-.24-1.336-.72-1.827a2.382 2.382 0 0 0-1.77-.737c-.701 0-1.29.246-1.767.737-.477.49-.715 1.1-.715 1.827 0 .72.238 1.325.715 1.812.477.487 1.066.731 1.766.731s1.29-.244 1.77-.731m.788-4.365c.697.7 1.045 1.551 1.045 2.553s-.348 1.85-1.045 2.543c-.696.693-1.55 1.04-2.558 1.04-1.01 0-1.86-.347-2.553-1.04-.693-.693-1.04-1.54-1.04-2.543 0-1.008.347-1.862 1.04-2.558.693-.697 1.544-1.045 2.553-1.045s1.862.35 2.558 1.05M131.606 58.025c.377 0 .683-.098.916-.293a.962.962 0 0 0 .35-.777.978.978 0 0 0-.35-.783c-.233-.199-.539-.298-.916-.298h-2.142v2.151h2.142zm1.317 3.748l-2.46-2.749h-.999v2.749h-1.101v-6.898h3.243c.707 0 1.278.19 1.714.571.436.381.653.884.653 1.509 0 .59-.197 1.072-.591 1.446-.395.374-.922.578-1.58.613l2.49 2.759h-1.369zM137.926 55.874v5.899h-1.112v-5.9h-2.419v-.998h5.961v.999zM147.223 58.725c0 .954-.268 1.725-.803 2.312-.536.586-1.24.88-2.11.88-.893 0-1.612-.294-2.158-.88-.545-.587-.818-1.358-.818-2.312v-3.85h1.101v3.85c0 .645.172 1.162.515 1.55.343.387.796.581 1.36.581.541 0 .98-.195 1.312-.586.333-.392.499-.906.499-1.545v-3.85h1.102v3.85zM155.54 57.86c.014.247.02.405.02.474 0 1.023-.325 1.875-.977 2.558-.652.683-1.486 1.025-2.501 1.025-1.016 0-1.874-.347-2.574-1.04-.7-.693-1.05-1.544-1.05-2.553 0-1.002.346-1.852 1.04-2.548.692-.697 1.543-1.045 2.552-1.045.756 0 1.432.178 2.029.535a2.87 2.87 0 0 1 1.256 1.503l-1 .35c-.438-.899-1.2-1.349-2.285-1.349-.693 0-1.278.246-1.755.737-.477.49-.715 1.096-.715 1.817 0 .727.243 1.335.73 1.822.488.487 1.088.731 1.802.731.625 0 1.15-.183 1.575-.55.426-.368.69-.854.793-1.458h-2.739v-1.008h3.8zM162.685 58.725c0 .954-.268 1.725-.803 2.312-.536.586-1.239.88-2.11.88-.893 0-1.612-.294-2.157-.88-.546-.587-.819-1.358-.819-2.312v-3.85h1.102v3.85c0 .645.171 1.162.515 1.55.343.387.796.581 1.359.581.542 0 .98-.195 1.312-.586.333-.392.5-.906.5-1.545v-3.85h1.101v3.85zM165.237 54.227l1.185-1.494h1.019l1.194 1.494h-1.081l-.618-.793-.628.793h-1.07zm4.139 7.546h-5.137v-6.898h5.127v.999h-4.026v1.945h3.717v.989h-3.717v1.966h4.036v.999zM174.95 55.256c.478.35.778.824.901 1.42l-1.101.227a1.365 1.365 0 0 0-.525-.88c-.289-.223-.639-.335-1.05-.335-.406 0-.732.098-.979.294a.92.92 0 0 0-.37.756c0 .24.07.43.211.567.14.137.362.236.664.298l1.493.32c1.18.26 1.77.888 1.77 1.883 0 .646-.242 1.159-.725 1.54-.484.38-1.124.571-1.92.571-.762 0-1.407-.18-1.936-.54a2.065 2.065 0 0 1-.916-1.509l1.174-.247c.082.432.28.76.597.983.315.223.71.335 1.183.335.454 0 .809-.098 1.066-.294a.93.93 0 0 0 .386-.777c0-.26-.073-.46-.221-.597-.148-.137-.397-.244-.746-.32l-1.504-.308c-1.16-.268-1.74-.892-1.74-1.873 0-.612.233-1.104.695-1.478.464-.374 1.076-.561 1.838-.561.693 0 1.279.175 1.756.525M62.922 70.44c.823 0 1.479-.226 1.966-.68.488-.452.731-1.042.731-1.77 0-.727-.243-1.317-.73-1.77-.488-.453-1.144-.68-1.967-.68h-1.308v4.9h1.308zm0-5.899c1.16 0 2.085.322 2.774.963.69.642 1.035 1.47 1.035 2.487 0 1.015-.345 1.844-1.035 2.486-.69.642-1.614.962-2.774.962h-2.41v-6.898h2.41zM70.622 65.89l-1.245 2.934h2.49l-1.245-2.934zm2.358 5.55l-.68-1.606h-3.356l-.68 1.605H67.07l3.037-6.898h1.03l3.037 6.898H72.98zM82.296 70.101c.405-.295.683-.728.834-1.297l1.07.226c-.185.796-.583 1.421-1.193 1.874-.611.453-1.328.68-2.152.68-1.002 0-1.852-.347-2.548-1.04-.697-.694-1.045-1.545-1.045-2.554 0-1.002.348-1.851 1.045-2.547.696-.697 1.546-1.046 2.548-1.046.816 0 1.53.223 2.141.67a3.108 3.108 0 0 1 1.205 1.801l-1.071.309c-.151-.57-.429-1.002-.834-1.297-.405-.295-.885-.443-1.441-.443-.7 0-1.289.246-1.766.736-.477.491-.716 1.097-.716 1.817 0 .721.239 1.327.716 1.817.477.491 1.066.737 1.766.737.556 0 1.036-.148 1.44-.443M90.552 69.813c.48-.488.72-1.092.72-1.812 0-.728-.24-1.337-.72-1.828a2.382 2.382 0 0 0-1.77-.736c-.7 0-1.289.246-1.766.736-.477.491-.716 1.1-.716 1.828 0 .72.239 1.324.716 1.812.477.487 1.065.73 1.766.73.7 0 1.29-.243 1.77-.73m.788-4.365c.696.7 1.045 1.55 1.045 2.553 0 1.002-.349 1.85-1.045 2.543-.697.693-1.55 1.04-2.558 1.04-1.01 0-1.86-.347-2.554-1.04-.693-.694-1.04-1.541-1.04-2.543 0-1.009.347-1.862 1.04-2.558.694-.697 1.545-1.046 2.554-1.046 1.008 0 1.861.35 2.558 1.05M97.846 64.923c.477.35.777.823.9 1.42l-1.101.227a1.365 1.365 0 0 0-.525-.88c-.289-.224-.638-.335-1.05-.335-.405 0-.732.098-.978.293a.92.92 0 0 0-.37.757c0 .24.07.43.21.566.14.137.362.237.664.299l1.493.319c1.18.261 1.771.889 1.771 1.884 0 .645-.243 1.158-.726 1.539-.484.38-1.124.572-1.92.572-.762 0-1.407-.18-1.936-.54a2.063 2.063 0 0 1-.916-1.509l1.174-.248c.082.433.281.76.597.984.316.223.71.334 1.184.334.453 0 .808-.097 1.066-.293a.928.928 0 0 0 .385-.777c0-.261-.074-.46-.22-.597-.148-.138-.397-.244-.747-.32l-1.503-.308c-1.16-.268-1.74-.893-1.74-1.874 0-.611.232-1.104.695-1.478.463-.374 1.075-.56 1.837-.56.694 0 1.279.174 1.756.525M102.967 65.54v5.9h-1.112v-5.9h-2.42v-.999h5.962v1zM108.629 65.89l-1.246 2.934h2.491l-1.245-2.934zm2.358 5.55l-.68-1.606h-3.356l-.68 1.605h-1.194l3.037-6.898h1.03l3.037 6.898h-1.194z" mask="url(#f)"/>
    </g>
</svg>
